<svg id="图层_1" data-name="图层 1" xmlns="http://www.w3.org/2000/svg" viewBox="0 0 32 32"><defs><style>.cls-1{fill:#e5e5e5;}.cls-2{fill:#ccc;}.cls-3{fill:#fff;}</style></defs><title>未知文件</title><path class="cls-1" d="M4.27,0A1.52,1.52,0,0,0,3.15.48,1.64,1.64,0,0,0,2.67,1.6V30.4a1.54,1.54,0,0,0,.48,1.12A1.56,1.56,0,0,0,4.27,32H27.73a1.64,1.64,0,0,0,1.6-1.59V9.07L20.27,0Z"/><path class="cls-2" d="M29.33,9.07H21.87a1.64,1.64,0,0,1-1.6-1.6V0Z"/><path class="cls-3" d="M19.68,9.16A4,4,0,0,1,21,12.31,4.33,4.33,0,0,1,20.17,15,21.78,21.78,0,0,1,18.3,16.7a3.92,3.92,0,0,0-.9,1.13A2.91,2.91,0,0,0,17,19.3v.37H14.69V19.3a4.63,4.63,0,0,1,.42-2.09,12.07,12.07,0,0,1,2.51-2.73l.37-.41a2.59,2.59,0,0,0,.59-1.61,2.55,2.55,0,0,0-.63-1.8A2.51,2.51,0,0,0,16.1,10a2.48,2.48,0,0,0-2.16.92,3.79,3.79,0,0,0-.59,2.27H11a5,5,0,0,1,1.41-3.78A5.08,5.08,0,0,1,16.23,8,5,5,0,0,1,19.68,9.16ZM17,21.3a1.43,1.43,0,0,1,.46,1.12A1.53,1.53,0,0,1,17,23.56a1.68,1.68,0,0,1-1.16.44,1.46,1.46,0,0,1-1.12-.46,1.47,1.47,0,0,1-.49-1.12,1.39,1.39,0,0,1,.49-1.12,1.47,1.47,0,0,1,1.12-.44A1.58,1.58,0,0,1,17,21.3Z"/></svg>