<svg id="图层_1" data-name="图层 1" xmlns="http://www.w3.org/2000/svg" xmlns:xlink="http://www.w3.org/1999/xlink" viewBox="0 0 32 32"><defs><style>.cls-1{fill:none;}.cls-2{clip-path:url(#clip-path);}.cls-3{fill:#5acc9b;}.cls-4{fill:#bdebd7;}.cls-5{fill:#fff;}</style><clipPath id="clip-path"><rect class="cls-1" x="2.67" width="26.66" height="32"/></clipPath></defs><title>excel</title><g class="cls-2"><path class="cls-3" d="M4.26,0A1.55,1.55,0,0,0,3.14.48,1.67,1.67,0,0,0,2.67,1.6V30.4a1.53,1.53,0,0,0,.47,1.12A1.59,1.59,0,0,0,4.26,32H27.73a1.54,1.54,0,0,0,1.12-.48,1.55,1.55,0,0,0,.48-1.11V9.07L20.27,0Z"/></g><path class="cls-4" d="M29.33,9.07H21.86a1.65,1.65,0,0,1-1.6-1.6V0Z"/><path class="cls-5" d="M14.77,16.85l-3.63-5.06h2.51L16,15.41l2.48-3.62h2.42l-3.7,5.06,3.89,5.39H18.59L16,18.4l-2.61,3.87H10.88Z"/></svg>