<svg id="图层_1" data-name="图层 1" xmlns="http://www.w3.org/2000/svg" xmlns:xlink="http://www.w3.org/1999/xlink" viewBox="0 0 32 32"><defs><style>.cls-1{fill:none;}.cls-2{clip-path:url(#clip-path);}.cls-3{fill:#ff5562;}.cls-4{fill:#ffbbc0;}.cls-5{fill:#fff;}</style><clipPath id="clip-path"><rect class="cls-1" x="2.65" y="-0.02" width="26.68" height="32.02"/></clipPath></defs><title>jpg</title><g class="cls-2"><path class="cls-3" d="M4.25,0A1.52,1.52,0,0,0,3.13.46a1.64,1.64,0,0,0-.48,1.12V30.4a1.54,1.54,0,0,0,.48,1.12A1.56,1.56,0,0,0,4.25,32H27.73a1.54,1.54,0,0,0,1.12-.48,1.6,1.6,0,0,0,.48-1.12V9.06L20.26,0Z"/></g><path class="cls-4" d="M29.33,9.05H21.86a1.63,1.63,0,0,1-1.6-1.6V0Z"/><path class="cls-5" d="M24.21,22.45l-3.34-5.18a.54.54,0,0,0-.45-.24.61.61,0,0,0-.45.24l-1.79,2.78-4-6.49a.54.54,0,0,0-.45-.24.6.6,0,0,0-.45.24l-5.5,8.89a.47.47,0,0,0,0,.53.5.5,0,0,0,.45.27H23.75a.6.6,0,0,0,.48-.27.53.53,0,0,0,0-.53Z"/><path class="cls-5" d="M19.67,12.66A1.34,1.34,0,1,0,21,11.32a1.34,1.34,0,0,0-1.33,1.34Z"/></svg>