<svg id="图层_1" data-name="图层 1" xmlns="http://www.w3.org/2000/svg" xmlns:xlink="http://www.w3.org/1999/xlink" viewBox="0 0 32 32"><defs><style>.cls-1{fill:none;}.cls-2{clip-path:url(#clip-path);}.cls-3{fill:#ff5562;}.cls-4{fill:#ffbbc0;}.cls-5{fill:#fff;}</style><clipPath id="clip-path"><rect class="cls-1" x="2.67" width="26.66" height="32"/></clipPath></defs><title>pdf</title><g class="cls-2"><path class="cls-3" d="M4.26,0A1.55,1.55,0,0,0,3.14.48,1.67,1.67,0,0,0,2.67,1.6V30.4a1.53,1.53,0,0,0,.47,1.12A1.59,1.59,0,0,0,4.26,32H27.73a1.54,1.54,0,0,0,1.12-.48,1.55,1.55,0,0,0,.48-1.11V9.07L20.27,0Z"/></g><path class="cls-4" d="M29.33,9.07H21.86a1.65,1.65,0,0,1-1.6-1.6V0Z"/><path class="cls-5" d="M22.13,27c-1.68,0-3.17-2.88-4-4.75a29.31,29.31,0,0,0-4.21-1.41c-1.25.83-3.36,2.05-5,2.05a1.93,1.93,0,0,1-2-1.38,1.67,1.67,0,0,1,.18-1.5,3.16,3.16,0,0,1,2.65-.88,17,17,0,0,1,4,.56,23.88,23.88,0,0,0,2.85-2.35c-.4-1.87-.82-4.89.27-6.27a2.07,2.07,0,0,1,2.35-.59A2.15,2.15,0,0,1,20.83,12c.45,1.8-1.63,4.26-3,5.7A27.09,27.09,0,0,0,19,21.48c2,.91,4.42,2.24,4.7,3.71a1.48,1.48,0,0,1-.46,1.39,1.7,1.7,0,0,1-1.12.45ZM19.65,23c1,2.05,2,3,2.48,3a.57.57,0,0,0,.35-.16.44.44,0,0,0,.16-.43c-.11-.53-1-1.41-3-2.42ZM9.78,20.24c-1.3,0-1.68.32-1.78.45s-.14.18,0,.56.29.64,1,.64a7.81,7.81,0,0,0,3.52-1.33,14.43,14.43,0,0,0-2.7-.32Zm5.28-.16c.86.24,1.74.53,2.56.85-.29-.77-.53-1.57-.74-2.35-.59.51-1.2,1-1.81,1.5Zm3.31-8.61a.84.84,0,0,0-.69.32c-.56.69-.62,2.45-.18,4.7,1.62-1.74,2.5-3.34,2.29-4.19,0-.13-.13-.51-.88-.72a1.4,1.4,0,0,0-.53-.11Z"/></svg>