<svg id="图层_1" data-name="图层 1" xmlns="http://www.w3.org/2000/svg" xmlns:xlink="http://www.w3.org/1999/xlink" viewBox="0 0 32 32"><defs><style>.cls-1{fill:none;}.cls-2{clip-path:url(#clip-path);}.cls-3{fill:#ff8976;}.cls-4{fill:#ffd0c8;}.cls-5{fill:#fff;}</style><clipPath id="clip-path"><rect class="cls-1" x="2.67" width="26.66" height="32"/></clipPath></defs><title>ppt</title><g class="cls-2"><path class="cls-3" d="M4.26,0A1.55,1.55,0,0,0,3.14.48,1.67,1.67,0,0,0,2.67,1.6V30.4a1.53,1.53,0,0,0,.47,1.12A1.59,1.59,0,0,0,4.26,32H27.73a1.54,1.54,0,0,0,1.12-.48,1.55,1.55,0,0,0,.48-1.11V9.07L20.27,0Z"/></g><path class="cls-4" d="M29.33,9.07H21.86a1.65,1.65,0,0,1-1.6-1.6V0Z"/><path class="cls-5" d="M11.78,11.79h5.87c2.35,0,3.09,1.57,3.09,3.25a3,3,0,0,1-3.07,3.23H13.79v4h-2Zm2,4.84H17c1.15,0,1.76-.34,1.76-1.57a1.44,1.44,0,0,0-1.6-1.6H13.79Z"/></svg>