<svg id="图层_1" data-name="图层 1" xmlns="http://www.w3.org/2000/svg" xmlns:xlink="http://www.w3.org/1999/xlink" viewBox="0 0 32 32"><defs><style>.cls-1{fill:none;}.cls-2{clip-path:url(#clip-path);}.cls-3{fill:#8095ff;}.cls-4{fill:#ccd5ff;}.cls-5{fill:#c0caff;}.cls-6{fill:#fff;}</style><clipPath id="clip-path"><rect class="cls-1" x="2.65" y="-0.02" width="26.68" height="32.02"/></clipPath></defs><title>psd</title><g class="cls-2"><path class="cls-3" d="M4.25,0A1.52,1.52,0,0,0,3.13.46a1.54,1.54,0,0,0-.48,1.12V30.4a1.54,1.54,0,0,0,.48,1.12A1.56,1.56,0,0,0,4.25,32H27.73a1.54,1.54,0,0,0,1.12-.48,1.6,1.6,0,0,0,.48-1.12V9.06L20.26,0Z"/></g><path class="cls-4" d="M29.33,9.05H21.86a1.63,1.63,0,0,1-1.6-1.6V0Z"/><path class="cls-5" d="M15.45,17.27a1.13,1.13,0,0,1,1.07,0l6.17,3.58a.51.51,0,0,1,.19.7.46.46,0,0,1-.19.2l-6.22,3.61a1.19,1.19,0,0,1-1.07,0L9.24,21.78a.52.52,0,0,1-.2-.71.46.46,0,0,1,.2-.19Z"/><path class="cls-6" d="M15.45,11.93a1.19,1.19,0,0,1,1.07,0l6.17,3.58a.53.53,0,0,1,0,.91L16.47,20a1.13,1.13,0,0,1-1.07,0L9.24,16.44a.51.51,0,0,1-.2-.7.48.48,0,0,1,.2-.2Z"/></svg>