<svg id="图层_1" data-name="图层 1" xmlns="http://www.w3.org/2000/svg" viewBox="0 0 32 32"><defs><style>.cls-1{fill:#e5e5e5;}.cls-2{fill:#ccc;}.cls-3{fill:#fff;}</style></defs><title>txt</title><path class="cls-1" d="M4.25,0A1.52,1.52,0,0,0,3.13.47a1.64,1.64,0,0,0-.48,1.12V30.4a1.55,1.55,0,0,0,.48,1.12A1.56,1.56,0,0,0,4.25,32H27.72a1.52,1.52,0,0,0,1.12-.48,1.54,1.54,0,0,0,.48-1.12V9.06L20.25,0Z"/><path class="cls-2" d="M29.32,9.06H21.85a1.65,1.65,0,0,1-1.6-1.6V0Z"/><path class="cls-3" d="M11.56,11.6h8.85V13h-3.6v9.39H15.18V13H11.56Z"/></svg>