<svg id="图层_1" data-name="图层 1" xmlns="http://www.w3.org/2000/svg" viewBox="0 0 32 32"><defs><style>.cls-1{fill:#5acc9b;}.cls-2{fill:#6ccbff;}.cls-3{fill:#ffd766;}.cls-4{fill:#ff5562;}.cls-5{fill:#fff;}</style></defs><title>zip</title><path class="cls-1" d="M30.4,30.39H1.6A1.5,1.5,0,0,1,0,29V20.78H32V29a1.5,1.5,0,0,1-1.6,1.36Z"/><path class="cls-2" d="M1.6,1.59H30.4A1.5,1.5,0,0,1,32,3v8.24H0V3A1.5,1.5,0,0,1,1.6,1.59Z"/><rect class="cls-3" y="11.19" width="32" height="9.6"/><rect class="cls-4" x="10.66" y="1.59" width="10.66" height="28.8"/><path class="cls-5" d="M13.74,3.19h2.13v1.6H13.74Zm2.13-1.6H18v1.6H15.86Zm0,3.2H18v1.6H15.86Zm-2.13,1.6h2.13V8H13.74ZM15.87,8H18v1.6H15.86Zm-2.13,1.6h2.13v1.6H13.74Zm2.13,1.6H18v1.6H15.86Zm-2.13,1.6h2.13v1.6H13.74Zm2.13,1.6H18V16H15.86ZM13.74,16h2.13v1.6H13.74Zm2.13,1.6H18v1.6H15.86Zm-2.13,1.6h2.13v1.59H13.74Zm2.12,1.59H18v1.6H15.86Zm-2.12,1.61h2.13V24H13.74ZM15.87,24H18v1.6H15.86Zm-2.13,1.6h2.13v1.6H13.74Zm0,3.2h2.13v1.6H13.74Zm2.13-1.6H18v1.6H15.86Z"/></svg>